<?xml version="1.0" encoding="UTF-8" standalone="no"?>
<!DOCTYPE svg PUBLIC "-//W3C//DTD SVG 1.1//EN"
 "http://www.w3.org/Graphics/SVG/1.1/DTD/svg11.dtd">
<!-- Generated by graphviz version 2.44.0 (0)
 -->
<!-- Pages: 1 -->
<svg width="924pt" height="740pt"
 viewBox="0.00 0.00 924.00 740.00" xmlns="http://www.w3.org/2000/svg" xmlns:xlink="http://www.w3.org/1999/xlink">
<g id="graph0" class="graph" transform="scale(1 1) rotate(0) translate(4 736)">
<polygon fill="white" stroke="transparent" points="-4,4 -4,-736 920,-736 920,4 -4,4"/>
<!-- tetsushi -->
<g id="node1" class="node">
<title>tetsushi</title>
<ellipse fill="none" stroke="black" cx="249" cy="-714" rx="50.09" ry="18"/>
<text text-anchor="middle" x="249" y="-710.3" font-family="Times,serif" font-size="14.00">Tetsushi</text>
</g>
<!-- kinoko -->
<g id="node2" class="node">
<title>kinoko</title>
<ellipse fill="none" stroke="black" cx="249" cy="-627" rx="42.49" ry="18"/>
<text text-anchor="middle" x="249" y="-623.3" font-family="Times,serif" font-size="14.00">Kinoko</text>
</g>
<!-- tetsushi&#45;&gt;kinoko -->
<g id="edge1" class="edge">
<title>tetsushi&#45;&gt;kinoko</title>
<path fill="none" stroke="black" d="M235.18,-696.3C228.97,-686.77 223.69,-674.48 227,-663 227.98,-659.59 229.41,-656.18 231.07,-652.92"/>
<polygon fill="black" stroke="black" points="234.16,-654.56 236.2,-644.17 228.12,-651.03 234.16,-654.56"/>
<text text-anchor="middle" x="239" y="-666.8" font-family="Times,serif" font-size="14.00">ore</text>
</g>
<!-- kinoko&#45;&gt;tetsushi -->
<g id="edge2" class="edge">
<title>kinoko&#45;&gt;tetsushi</title>
<path fill="none" stroke="black" d="M250.17,-645.08C250.51,-650.78 250.83,-657.16 251,-663 251.21,-670.35 251.06,-678.31 250.77,-685.67"/>
<polygon fill="black" stroke="black" points="247.26,-685.72 250.27,-695.88 254.26,-686.06 247.26,-685.72"/>
<text text-anchor="middle" x="267.5" y="-666.8" font-family="Times,serif" font-size="14.00">food</text>
</g>
<!-- fazu -->
<g id="node3" class="node">
<title>fazu</title>
<ellipse fill="none" stroke="black" cx="216" cy="-192" rx="74.19" ry="18"/>
<text text-anchor="middle" x="216" y="-188.3" font-family="Times,serif" font-size="14.00">Fazu Harbour</text>
</g>
<!-- kinoko&#45;&gt;fazu -->
<g id="edge3" class="edge">
<title>kinoko&#45;&gt;fazu</title>
<path fill="none" stroke="black" d="M208.04,-622.35C156.26,-617.18 70.55,-606.57 43,-591 17.48,-576.58 0,-570.31 0,-541 0,-541 0,-541 0,-278 0,-248.69 17.71,-242.82 43,-228 70.43,-211.92 104.05,-203.13 134.34,-198.35"/>
<polygon fill="black" stroke="black" points="135.07,-201.79 144.46,-196.89 134.06,-194.86 135.07,-201.79"/>
<text text-anchor="middle" x="17" y="-405.8" font-family="Times,serif" font-size="14.00">craft</text>
</g>
<!-- kinoko&#45;&gt;fazu -->
<g id="edge4" class="edge">
<title>kinoko&#45;&gt;fazu</title>
<path fill="none" stroke="black" d="M206.86,-625.24C150.35,-621.72 57,-606.07 57,-541 57,-541 57,-541 57,-278 57,-235.84 101.02,-214.51 142.74,-203.77"/>
<polygon fill="black" stroke="black" points="143.79,-207.11 152.7,-201.38 142.16,-200.31 143.79,-207.11"/>
<text text-anchor="middle" x="76.5" y="-405.8" font-family="Times,serif" font-size="14.00">maps</text>
</g>
<!-- kinoko&#45;&gt;fazu -->
<g id="edge5" class="edge">
<title>kinoko&#45;&gt;fazu</title>
<path fill="none" stroke="black" d="M211.75,-618.37C173.33,-608.08 119,-585.63 119,-541 119,-541 119,-541 119,-278 119,-248.29 145.06,-226.54 170.17,-212.48"/>
<polygon fill="black" stroke="black" points="172.12,-215.41 179.33,-207.65 168.85,-209.22 172.12,-215.41"/>
<text text-anchor="middle" x="136.5" y="-405.8" font-family="Times,serif" font-size="14.00">bank</text>
</g>
<!-- minas -->
<g id="node8" class="node">
<title>minas</title>
<ellipse fill="none" stroke="black" cx="309" cy="-540" rx="38.99" ry="18"/>
<text text-anchor="middle" x="309" y="-536.3" font-family="Times,serif" font-size="14.00">Minas</text>
</g>
<!-- kinoko&#45;&gt;minas -->
<g id="edge6" class="edge">
<title>kinoko&#45;&gt;minas</title>
<path fill="none" stroke="black" d="M231.41,-610.22C222.34,-600.14 214.6,-586.95 222,-576 231.2,-562.39 246.66,-554.07 262.02,-548.99"/>
<polygon fill="black" stroke="black" points="263.4,-552.23 272.03,-546.09 261.45,-545.51 263.4,-552.23"/>
<text text-anchor="middle" x="239" y="-579.8" font-family="Times,serif" font-size="14.00">craft</text>
</g>
<!-- kinoko&#45;&gt;minas -->
<g id="edge7" class="edge">
<title>kinoko&#45;&gt;minas</title>
<path fill="none" stroke="black" d="M258.06,-609.34C263.69,-599.4 271.31,-586.68 279,-576 281.71,-572.25 284.72,-568.4 287.76,-564.7"/>
<polygon fill="black" stroke="black" points="290.57,-566.81 294.37,-556.92 285.23,-562.28 290.57,-566.81"/>
<text text-anchor="middle" x="298.5" y="-579.8" font-family="Times,serif" font-size="14.00">maps</text>
</g>
<!-- fazu&#45;&gt;kinoko -->
<g id="edge10" class="edge">
<title>fazu&#45;&gt;kinoko</title>
<path fill="none" stroke="black" d="M287.84,-196.44C440.02,-204.69 781,-228.68 781,-278 781,-541 781,-541 781,-541 781,-589.31 434.45,-615.01 300.75,-623.12"/>
<polygon fill="black" stroke="black" points="300.52,-619.63 290.75,-623.72 300.94,-626.62 300.52,-619.63"/>
<text text-anchor="middle" x="802.5" y="-405.8" font-family="Times,serif" font-size="14.00">magic</text>
</g>
<!-- fazu&#45;&gt;kinoko -->
<g id="edge11" class="edge">
<title>fazu&#45;&gt;kinoko</title>
<path fill="none" stroke="black" d="M289,-195.32C455.1,-201.58 847,-222.25 847,-278 847,-541 847,-541 847,-541 847,-595.91 446.62,-617.87 301.08,-624.04"/>
<polygon fill="black" stroke="black" points="300.9,-620.54 291.05,-624.46 301.19,-627.54 300.9,-620.54"/>
<text text-anchor="middle" x="881.5" y="-405.8" font-family="Times,serif" font-size="14.00">treasures</text>
</g>
<!-- clarence -->
<g id="node4" class="node">
<title>clarence</title>
<ellipse fill="none" stroke="black" cx="97" cy="-105" rx="51.99" ry="18"/>
<text text-anchor="middle" x="97" y="-101.3" font-family="Times,serif" font-size="14.00">Clarence</text>
</g>
<!-- fazu&#45;&gt;clarence -->
<g id="edge8" class="edge">
<title>fazu&#45;&gt;clarence</title>
<path fill="none" stroke="black" d="M143.14,-188.67C89.37,-185.24 22.62,-176.78 5,-156 -10.51,-137.7 14.41,-124.99 42.2,-116.96"/>
<polygon fill="black" stroke="black" points="43.33,-120.28 52.09,-114.31 41.52,-113.51 43.33,-120.28"/>
<text text-anchor="middle" x="26.5" y="-144.8" font-family="Times,serif" font-size="14.00">magic</text>
</g>
<!-- fazu&#45;&gt;clarence -->
<g id="edge9" class="edge">
<title>fazu&#45;&gt;clarence</title>
<path fill="none" stroke="black" d="M151.19,-183.27C117.5,-177.77 81.25,-169.02 71,-156 64.92,-148.27 67.62,-138.91 73.14,-130.38"/>
<polygon fill="black" stroke="black" points="76.09,-132.29 79.39,-122.23 70.53,-128.04 76.09,-132.29"/>
<text text-anchor="middle" x="86.5" y="-144.8" font-family="Times,serif" font-size="14.00">food</text>
</g>
<!-- kyoukai -->
<g id="node5" class="node">
<title>kyoukai</title>
<ellipse fill="none" stroke="black" cx="355" cy="-105" rx="46.59" ry="18"/>
<text text-anchor="middle" x="355" y="-101.3" font-family="Times,serif" font-size="14.00">Kyoukai</text>
</g>
<!-- fazu&#45;&gt;kyoukai -->
<g id="edge12" class="edge">
<title>fazu&#45;&gt;kyoukai</title>
<path fill="none" stroke="black" d="M229.16,-173.84C238.05,-163.2 250.57,-149.92 264,-141 277.42,-132.09 293.43,-124.96 308.26,-119.53"/>
<polygon fill="black" stroke="black" points="309.5,-122.8 317.79,-116.2 307.2,-116.19 309.5,-122.8"/>
<text text-anchor="middle" x="298.5" y="-144.8" font-family="Times,serif" font-size="14.00">treasures</text>
</g>
<!-- fazu&#45;&gt;kyoukai -->
<g id="edge13" class="edge">
<title>fazu&#45;&gt;kyoukai</title>
<path fill="none" stroke="black" d="M279.32,-182.54C298.32,-177.42 318.06,-169.19 333,-156 339.95,-149.86 344.8,-141.12 348.14,-132.66"/>
<polygon fill="black" stroke="black" points="351.51,-133.63 351.4,-123.03 344.88,-131.38 351.51,-133.63"/>
<text text-anchor="middle" x="359.5" y="-144.8" font-family="Times,serif" font-size="14.00">food</text>
</g>
<!-- pium -->
<g id="node7" class="node">
<title>pium</title>
<ellipse fill="none" stroke="black" cx="308" cy="-279" rx="34.39" ry="18"/>
<text text-anchor="middle" x="308" y="-275.3" font-family="Times,serif" font-size="14.00">Pium</text>
</g>
<!-- fazu&#45;&gt;pium -->
<g id="edge14" class="edge">
<title>fazu&#45;&gt;pium</title>
<path fill="none" stroke="black" d="M230.63,-209.84C239.61,-219.84 251.55,-232.57 263,-243 268.53,-248.04 274.73,-253.16 280.7,-257.86"/>
<polygon fill="black" stroke="black" points="278.58,-260.65 288.64,-263.99 282.86,-255.11 278.58,-260.65"/>
<text text-anchor="middle" x="284.5" y="-231.8" font-family="Times,serif" font-size="14.00">magic</text>
</g>
<!-- fazu&#45;&gt;pium -->
<g id="edge15" class="edge">
<title>fazu&#45;&gt;pium</title>
<path fill="none" stroke="black" d="M272.68,-203.83C285.61,-209.01 297.92,-216.67 306,-228 310.63,-234.49 312.2,-242.75 312.31,-250.68"/>
<polygon fill="black" stroke="black" points="308.81,-250.56 311.74,-260.74 315.8,-250.95 308.81,-250.56"/>
<text text-anchor="middle" x="324" y="-231.8" font-family="Times,serif" font-size="14.00">ore</text>
</g>
<!-- clarence&#45;&gt;fazu -->
<g id="edge16" class="edge">
<title>clarence&#45;&gt;fazu</title>
<path fill="none" stroke="black" d="M103.15,-123.3C107.72,-133.98 114.92,-147.27 125,-156 134.1,-163.88 145.16,-170.08 156.39,-174.93"/>
<polygon fill="black" stroke="black" points="155.25,-178.24 165.83,-178.69 157.84,-171.74 155.25,-178.24"/>
<text text-anchor="middle" x="159.5" y="-144.8" font-family="Times,serif" font-size="14.00">treasures</text>
</g>
<!-- clarence&#45;&gt;fazu -->
<g id="edge17" class="edge">
<title>clarence&#45;&gt;fazu</title>
<path fill="none" stroke="black" d="M142.11,-114.19C160.04,-119.36 179.74,-127.68 194,-141 200.68,-147.23 205.44,-155.86 208.79,-164.18"/>
<polygon fill="black" stroke="black" points="205.5,-165.38 212.1,-173.67 212.11,-163.07 205.5,-165.38"/>
<text text-anchor="middle" x="217" y="-144.8" font-family="Times,serif" font-size="14.00">ore</text>
</g>
<!-- kyoukai&#45;&gt;fazu -->
<g id="edge18" class="edge">
<title>kyoukai&#45;&gt;fazu</title>
<path fill="none" stroke="black" d="M371.3,-121.95C379.94,-132.34 387.23,-145.81 379,-156 367.94,-169.68 330.63,-178.26 294.49,-183.5"/>
<polygon fill="black" stroke="black" points="293.78,-180.07 284.35,-184.89 294.73,-187 293.78,-180.07"/>
<text text-anchor="middle" x="400.5" y="-144.8" font-family="Times,serif" font-size="14.00">bank</text>
</g>
<!-- gaja -->
<g id="node6" class="node">
<title>gaja</title>
<ellipse fill="none" stroke="black" cx="355" cy="-18" rx="31.7" ry="18"/>
<text text-anchor="middle" x="355" y="-14.3" font-family="Times,serif" font-size="14.00">Gaja</text>
</g>
<!-- kyoukai&#45;&gt;gaja -->
<g id="edge19" class="edge">
<title>kyoukai&#45;&gt;gaja</title>
<path fill="none" stroke="black" d="M338.46,-87.98C333.84,-82.45 329.42,-75.9 327,-69 323.72,-59.66 327.22,-50.03 332.72,-41.75"/>
<polygon fill="black" stroke="black" points="335.62,-43.72 338.98,-33.67 330.09,-39.43 335.62,-43.72"/>
<text text-anchor="middle" x="344.5" y="-57.8" font-family="Times,serif" font-size="14.00">bank</text>
</g>
<!-- gaja&#45;&gt;kyoukai -->
<g id="edge36" class="edge">
<title>gaja&#45;&gt;kyoukai</title>
<path fill="none" stroke="black" d="M359.1,-35.99C360.28,-41.68 361.41,-48.08 362,-54 362.74,-61.47 362.2,-69.54 361.16,-76.97"/>
<polygon fill="black" stroke="black" points="357.69,-76.46 359.42,-86.92 364.59,-77.67 357.69,-76.46"/>
<text text-anchor="middle" x="397.5" y="-57.8" font-family="Times,serif" font-size="14.00">treasures</text>
</g>
<!-- pium&#45;&gt;fazu -->
<g id="edge20" class="edge">
<title>pium&#45;&gt;fazu</title>
<path fill="none" stroke="black" d="M274.98,-273.85C239.94,-268.68 188,-258.6 176,-243 169.12,-234.05 173.99,-224.33 182.37,-215.87"/>
<polygon fill="black" stroke="black" points="184.88,-218.33 190.06,-209.09 180.25,-213.08 184.88,-218.33"/>
<text text-anchor="middle" x="210.5" y="-231.8" font-family="Times,serif" font-size="14.00">treasures</text>
</g>
<!-- parokjo -->
<g id="node10" class="node">
<title>parokjo</title>
<ellipse fill="none" stroke="black" cx="497" cy="-366" rx="45.49" ry="18"/>
<text text-anchor="middle" x="497" y="-362.3" font-family="Times,serif" font-size="14.00">Parokjo</text>
</g>
<!-- pium&#45;&gt;parokjo -->
<g id="edge21" class="edge">
<title>pium&#45;&gt;parokjo</title>
<path fill="none" stroke="black" d="M336.05,-289.69C353.41,-296.08 375.94,-305.07 395,-315 405.82,-320.64 407.28,-324.18 418,-330 430.29,-336.67 444.11,-343.13 456.71,-348.64"/>
<polygon fill="black" stroke="black" points="455.49,-351.93 466.06,-352.66 458.26,-345.49 455.49,-351.93"/>
<text text-anchor="middle" x="437.5" y="-318.8" font-family="Times,serif" font-size="14.00">maps</text>
</g>
<!-- pium&#45;&gt;parokjo -->
<g id="edge22" class="edge">
<title>pium&#45;&gt;parokjo</title>
<path fill="none" stroke="black" d="M342.1,-281.69C373.99,-284.66 421.84,-292.79 457,-315 466.83,-321.21 475.3,-330.69 481.89,-339.73"/>
<polygon fill="black" stroke="black" points="479.09,-341.84 487.61,-348.15 484.88,-337.91 479.09,-341.84"/>
<text text-anchor="middle" x="485" y="-318.8" font-family="Times,serif" font-size="14.00">ore</text>
</g>
<!-- pium&#45;&gt;parokjo -->
<g id="edge23" class="edge">
<title>pium&#45;&gt;parokjo</title>
<path fill="none" stroke="black" d="M342.49,-281.14C392.46,-283.6 481.19,-291.28 501,-315 506.26,-321.3 507.1,-329.73 506.07,-337.88"/>
<polygon fill="black" stroke="black" points="502.61,-337.35 503.96,-347.86 509.46,-338.8 502.61,-337.35"/>
<text text-anchor="middle" x="527.5" y="-318.8" font-family="Times,serif" font-size="14.00">magic</text>
</g>
<!-- pium&#45;&gt;parokjo -->
<g id="edge24" class="edge">
<title>pium&#45;&gt;parokjo</title>
<path fill="none" stroke="black" d="M342.64,-279.63C403.61,-279.8 526.19,-284.08 553,-315 563.14,-326.69 551.83,-338.29 536.79,-347.37"/>
<polygon fill="black" stroke="black" points="534.71,-344.52 527.64,-352.4 538.09,-350.65 534.71,-344.52"/>
<text text-anchor="middle" x="573.5" y="-318.8" font-family="Times,serif" font-size="14.00">bank</text>
</g>
<!-- minas&#45;&gt;kinoko -->
<g id="edge29" class="edge">
<title>minas&#45;&gt;kinoko</title>
<path fill="none" stroke="black" d="M317.58,-557.85C321.51,-568.1 324.09,-581.08 318,-591 312.19,-600.46 302.93,-607.47 293.06,-612.61"/>
<polygon fill="black" stroke="black" points="291.53,-609.46 283.91,-616.83 294.46,-615.82 291.53,-609.46"/>
<text text-anchor="middle" x="329.5" y="-579.8" font-family="Times,serif" font-size="14.00">猫</text>
</g>
<!-- minas&#45;&gt;pium -->
<g id="edge25" class="edge">
<title>minas&#45;&gt;pium</title>
<path fill="none" stroke="black" d="M273.59,-532.4C254.83,-527.35 232.54,-518.66 217,-504 186.18,-474.92 186.86,-458.44 178,-417 168.87,-374.32 213.71,-318.12 217,-315 230.56,-302.16 249.34,-293.88 266.31,-288.62"/>
<polygon fill="black" stroke="black" points="267.38,-291.96 276.05,-285.87 265.47,-285.22 267.38,-291.96"/>
<text text-anchor="middle" x="193.5" y="-405.8" font-family="Times,serif" font-size="14.00">food</text>
</g>
<!-- minas&#45;&gt;pium -->
<g id="edge26" class="edge">
<title>minas&#45;&gt;pium</title>
<path fill="none" stroke="black" d="M286.21,-525.09C278.31,-519.36 269.96,-512.15 264,-504 239.69,-470.74 239.22,-457.56 232,-417 225.42,-380.03 243.28,-328.6 253,-315 258.25,-307.65 265.57,-301.49 273.16,-296.48"/>
<polygon fill="black" stroke="black" points="275.31,-299.27 282.08,-291.13 271.71,-293.27 275.31,-299.27"/>
<text text-anchor="middle" x="244" y="-405.8" font-family="Times,serif" font-size="14.00">ore</text>
</g>
<!-- minas&#45;&gt;pium -->
<g id="edge27" class="edge">
<title>minas&#45;&gt;pium</title>
<path fill="none" stroke="black" d="M301.81,-522.14C286.65,-484.05 254.86,-388.9 281,-315 282.37,-311.12 284.35,-307.33 286.63,-303.77"/>
<polygon fill="black" stroke="black" points="289.64,-305.58 292.71,-295.44 283.98,-301.45 289.64,-305.58"/>
<text text-anchor="middle" x="293.5" y="-405.8" font-family="Times,serif" font-size="14.00">maps</text>
</g>
<!-- minas&#45;&gt;pium -->
<g id="edge28" class="edge">
<title>minas&#45;&gt;pium</title>
<path fill="none" stroke="black" d="M311.27,-521.7C314.4,-495.71 319.38,-445.06 317,-402 315.22,-369.85 311.1,-362.13 309,-330 308.52,-322.67 308.25,-314.71 308.1,-307.36"/>
<polygon fill="black" stroke="black" points="311.6,-307.09 307.96,-297.14 304.6,-307.19 311.6,-307.09"/>
<text text-anchor="middle" x="337.5" y="-405.8" font-family="Times,serif" font-size="14.00">taxes</text>
</g>
<!-- rejkjo -->
<g id="node11" class="node">
<title>rejkjo</title>
<ellipse fill="none" stroke="black" cx="458" cy="-453" rx="39.79" ry="18"/>
<text text-anchor="middle" x="458" y="-449.3" font-family="Times,serif" font-size="14.00">Rejkjo</text>
</g>
<!-- minas&#45;&gt;rejkjo -->
<g id="edge30" class="edge">
<title>minas&#45;&gt;rejkjo</title>
<path fill="none" stroke="black" d="M326.32,-523.66C338.93,-513.01 356.75,-498.99 374,-489 387.66,-481.08 403.46,-474.01 417.64,-468.34"/>
<polygon fill="black" stroke="black" points="419.1,-471.52 427.15,-464.63 416.57,-465 419.1,-471.52"/>
<text text-anchor="middle" x="395.5" y="-492.8" font-family="Times,serif" font-size="14.00">magic</text>
</g>
<!-- minas&#45;&gt;rejkjo -->
<g id="edge31" class="edge">
<title>minas&#45;&gt;rejkjo</title>
<path fill="none" stroke="black" d="M344.84,-532.76C367.04,-527.64 395.34,-518.77 417,-504 426.7,-497.38 435.31,-487.83 442.11,-478.84"/>
<polygon fill="black" stroke="black" points="445.1,-480.69 448.05,-470.51 439.4,-476.62 445.1,-480.69"/>
<text text-anchor="middle" x="449" y="-492.8" font-family="Times,serif" font-size="14.00">craft</text>
</g>
<!-- kolejxjo -->
<g id="node9" class="node">
<title>kolejxjo</title>
<ellipse fill="none" stroke="black" cx="673" cy="-279" rx="42.49" ry="18"/>
<text text-anchor="middle" x="673" y="-275.3" font-family="Times,serif" font-size="14.00">Kolejĵo</text>
</g>
<!-- kolejxjo&#45;&gt;parokjo -->
<g id="edge35" class="edge">
<title>kolejxjo&#45;&gt;parokjo</title>
<path fill="none" stroke="black" d="M678.03,-297.12C680.03,-307.73 680.38,-321.01 673,-330 657.84,-348.47 597.66,-357.37 551.85,-361.54"/>
<polygon fill="black" stroke="black" points="551.39,-358.07 541.73,-362.41 551.99,-365.04 551.39,-358.07"/>
<text text-anchor="middle" x="712.5" y="-318.8" font-family="Times,serif" font-size="14.00">treasures</text>
</g>
<!-- parokjo&#45;&gt;pium -->
<g id="edge32" class="edge">
<title>parokjo&#45;&gt;pium</title>
<path fill="none" stroke="black" d="M452.66,-361.38C407.21,-356.78 340.63,-347.27 322,-330 315.61,-324.07 312.05,-315.49 310.09,-307.11"/>
<polygon fill="black" stroke="black" points="313.53,-306.45 308.42,-297.17 306.63,-307.61 313.53,-306.45"/>
<text text-anchor="middle" x="356.5" y="-318.8" font-family="Times,serif" font-size="14.00">treasures</text>
</g>
<!-- parokjo&#45;&gt;kolejxjo -->
<g id="edge34" class="edge">
<title>parokjo&#45;&gt;kolejxjo</title>
<path fill="none" stroke="black" d="M539.87,-359.9C566.73,-355.23 601.2,-346.41 628,-330 638.52,-323.56 648.02,-313.91 655.56,-304.81"/>
<polygon fill="black" stroke="black" points="658.49,-306.74 661.89,-296.71 652.97,-302.43 658.49,-306.74"/>
<text text-anchor="middle" x="657" y="-318.8" font-family="Times,serif" font-size="14.00">ore</text>
</g>
<!-- parokjo&#45;&gt;rejkjo -->
<g id="edge33" class="edge">
<title>parokjo&#45;&gt;rejkjo</title>
<path fill="none" stroke="black" d="M487.94,-383.96C485,-389.65 481.77,-396.05 479,-402 475.42,-409.68 471.76,-418.14 468.52,-425.88"/>
<polygon fill="black" stroke="black" points="465.26,-424.61 464.68,-435.19 471.73,-427.28 465.26,-424.61"/>
<text text-anchor="middle" x="513.5" y="-405.8" font-family="Times,serif" font-size="14.00">treasures</text>
</g>
<!-- rejkjo&#45;&gt;minas -->
<g id="edge39" class="edge">
<title>rejkjo&#45;&gt;minas</title>
<path fill="none" stroke="black" d="M468.46,-470.43C473.76,-481.03 477.62,-494.55 470,-504 456.03,-521.33 399.52,-530.53 357.37,-535.07"/>
<polygon fill="black" stroke="black" points="356.86,-531.61 347.27,-536.1 357.57,-538.57 356.86,-531.61"/>
<text text-anchor="middle" x="493.5" y="-492.8" font-family="Times,serif" font-size="14.00">maps</text>
</g>
<!-- rejkjo&#45;&gt;parokjo -->
<g id="edge37" class="edge">
<title>rejkjo&#45;&gt;parokjo</title>
<path fill="none" stroke="black" d="M495.75,-447.37C514.78,-442.91 536.26,-434.16 548,-417 555.93,-405.41 546.87,-394.3 534.3,-385.5"/>
<polygon fill="black" stroke="black" points="536,-382.44 525.68,-380.07 532.27,-388.36 536,-382.44"/>
<text text-anchor="middle" x="569.5" y="-405.8" font-family="Times,serif" font-size="14.00">maps</text>
</g>
<!-- rejkjo&#45;&gt;parokjo -->
<g id="edge38" class="edge">
<title>rejkjo&#45;&gt;parokjo</title>
<path fill="none" stroke="black" d="M447.36,-435.55C442.26,-425.44 438.36,-412.48 444,-402 447.52,-395.46 452.86,-389.93 458.81,-385.35"/>
<polygon fill="black" stroke="black" points="460.89,-388.17 467.2,-379.66 456.96,-382.37 460.89,-388.17"/>
<text text-anchor="middle" x="456" y="-405.8" font-family="Times,serif" font-size="14.00">ore</text>
</g>
</g>
</svg>
