<?xml version="1.0" encoding="UTF-8" standalone="no"?>
<!DOCTYPE svg PUBLIC "-//W3C//DTD SVG 1.1//EN"
 "http://www.w3.org/Graphics/SVG/1.1/DTD/svg11.dtd">
<!-- Generated by graphviz version 2.44.0 (0)
 -->
<!-- Pages: 1 -->
<svg width="665pt" height="1052pt"
 viewBox="0.00 0.00 665.19 1052.00" xmlns="http://www.w3.org/2000/svg" xmlns:xlink="http://www.w3.org/1999/xlink">
<g id="graph0" class="graph" transform="scale(1 1) rotate(0) translate(4 1048)">
<polygon fill="white" stroke="transparent" points="-4,4 -4,-1048 661.19,-1048 661.19,4 -4,4"/>
<!-- tetsushi -->
<g id="node1" class="node">
<title>tetsushi</title>
<ellipse fill="none" stroke="black" cx="465.95" cy="-1026" rx="50.09" ry="18"/>
<text text-anchor="middle" x="465.95" y="-1022.3" font-family="Times,serif" font-size="14.00">Tetsushi</text>
</g>
<!-- kinoko -->
<g id="node2" class="node">
<title>kinoko</title>
<ellipse fill="none" stroke="black" cx="400.95" cy="-954" rx="42.49" ry="18"/>
<text text-anchor="middle" x="400.95" y="-950.3" font-family="Times,serif" font-size="14.00">Kinoko</text>
</g>
<!-- tetsushi&#45;&#45;kinoko -->
<g id="edge1" class="edge">
<title>tetsushi&#45;&#45;kinoko</title>
<path fill="none" stroke="black" d="M450.87,-1008.76C440.37,-997.46 426.42,-982.44 415.94,-971.15"/>
</g>
<!-- portal_island -->
<g id="node26" class="node">
<title>portal_island</title>
<ellipse fill="none" stroke="black" cx="530.95" cy="-954" rx="69.59" ry="18"/>
<text text-anchor="middle" x="530.95" y="-950.3" font-family="Times,serif" font-size="14.00">Portal Island</text>
</g>
<!-- tetsushi&#45;&#45;portal_island -->
<g id="edge28" class="edge">
<title>tetsushi&#45;&#45;portal_island</title>
<path fill="none" stroke="black" d="M481.02,-1008.76C491.37,-997.62 505.07,-982.87 515.5,-971.63"/>
</g>
<!-- fazu -->
<g id="node3" class="node">
<title>fazu</title>
<ellipse fill="none" stroke="black" cx="297.95" cy="-810" rx="74.19" ry="18"/>
<text text-anchor="middle" x="297.95" y="-806.3" font-family="Times,serif" font-size="14.00">Fazu Harbour</text>
</g>
<!-- kinoko&#45;&#45;fazu -->
<g id="edge2" class="edge">
<title>kinoko&#45;&#45;fazu</title>
<path fill="none" stroke="black" d="M370.9,-941.27C352.56,-932.58 330.17,-918.95 316.95,-900 301.94,-878.49 298.41,-847.45 297.77,-828.29"/>
</g>
<!-- sheep_island -->
<g id="node14" class="node">
<title>sheep_island</title>
<ellipse fill="none" stroke="black" cx="400.95" cy="-882" rx="75.29" ry="18"/>
<text text-anchor="middle" x="400.95" y="-878.3" font-family="Times,serif" font-size="14.00">Sheep islands</text>
</g>
<!-- kinoko&#45;&#45;sheep_island -->
<g id="edge3" class="edge">
<title>kinoko&#45;&#45;sheep_island</title>
<path fill="none" stroke="black" d="M400.95,-935.7C400.95,-924.85 400.95,-910.92 400.95,-900.1"/>
</g>
<!-- ghosts_islands -->
<g id="node15" class="node">
<title>ghosts_islands</title>
<ellipse fill="none" stroke="black" cx="575.95" cy="-882" rx="81.49" ry="18"/>
<text text-anchor="middle" x="575.95" y="-878.3" font-family="Times,serif" font-size="14.00">Ghosts&#39; islands</text>
</g>
<!-- kinoko&#45;&#45;ghosts_islands -->
<g id="edge4" class="edge">
<title>kinoko&#45;&#45;ghosts_islands</title>
<path fill="none" stroke="black" d="M430.63,-941.13C460.37,-929.23 506.25,-910.88 538.48,-897.99"/>
</g>
<!-- clarence -->
<g id="node4" class="node">
<title>clarence</title>
<ellipse fill="none" stroke="black" cx="292.95" cy="-738" rx="51.99" ry="18"/>
<text text-anchor="middle" x="292.95" y="-734.3" font-family="Times,serif" font-size="14.00">Clarence</text>
</g>
<!-- fazu&#45;&#45;clarence -->
<g id="edge8" class="edge">
<title>fazu&#45;&#45;clarence</title>
<path fill="none" stroke="black" d="M296.71,-791.7C295.93,-780.85 294.94,-766.92 294.17,-756.1"/>
</g>
<!-- kyoukai -->
<g id="node5" class="node">
<title>kyoukai</title>
<ellipse fill="none" stroke="black" cx="154.95" cy="-666" rx="46.59" ry="18"/>
<text text-anchor="middle" x="154.95" y="-662.3" font-family="Times,serif" font-size="14.00">Kyoukai</text>
</g>
<!-- clarence&#45;&#45;kyoukai -->
<g id="edge9" class="edge">
<title>clarence&#45;&#45;kyoukai</title>
<path fill="none" stroke="black" d="M264.69,-722.67C240.56,-710.43 206.07,-692.93 182.23,-680.84"/>
</g>
<!-- keble_planes -->
<g id="node17" class="node">
<title>keble_planes</title>
<ellipse fill="none" stroke="black" cx="292.95" cy="-666" rx="65.79" ry="18"/>
<text text-anchor="middle" x="292.95" y="-662.3" font-family="Times,serif" font-size="14.00">Keble plane</text>
</g>
<!-- clarence&#45;&#45;keble_planes -->
<g id="edge10" class="edge">
<title>clarence&#45;&#45;keble_planes</title>
<path fill="none" stroke="black" d="M292.95,-719.7C292.95,-708.85 292.95,-694.92 292.95,-684.1"/>
</g>
<!-- god_domain -->
<g id="node21" class="node">
<title>god_domain</title>
<ellipse fill="none" stroke="black" cx="146.95" cy="-594" rx="73.39" ry="18"/>
<text text-anchor="middle" x="146.95" y="-590.3" font-family="Times,serif" font-size="14.00">God&#39;s domain</text>
</g>
<!-- kyoukai&#45;&#45;god_domain -->
<g id="edge13" class="edge">
<title>kyoukai&#45;&#45;god_domain</title>
<path fill="none" stroke="black" d="M152.97,-647.7C151.73,-636.85 150.14,-622.92 148.9,-612.1"/>
</g>
<!-- gaja -->
<g id="node6" class="node">
<title>gaja</title>
<ellipse fill="none" stroke="black" cx="70.95" cy="-450" rx="31.7" ry="18"/>
<text text-anchor="middle" x="70.95" y="-446.3" font-family="Times,serif" font-size="14.00">Gaja</text>
</g>
<!-- pium -->
<g id="node7" class="node">
<title>pium</title>
<ellipse fill="none" stroke="black" cx="259.95" cy="-162" rx="34.39" ry="18"/>
<text text-anchor="middle" x="259.95" y="-158.3" font-family="Times,serif" font-size="14.00">Pium</text>
</g>
<!-- alexa_mountain -->
<g id="node19" class="node">
<title>alexa_mountain</title>
<ellipse fill="none" stroke="black" cx="227.95" cy="-90" rx="83.39" ry="18"/>
<text text-anchor="middle" x="227.95" y="-86.3" font-family="Times,serif" font-size="14.00">Alexa mountain</text>
</g>
<!-- pium&#45;&#45;alexa_mountain -->
<g id="edge24" class="edge">
<title>pium&#45;&#45;alexa_mountain</title>
<path fill="none" stroke="black" d="M252.36,-144.41C247.33,-133.41 240.76,-119.03 235.7,-107.96"/>
</g>
<!-- horagawa_bay -->
<g id="node23" class="node">
<title>horagawa_bay</title>
<ellipse fill="none" stroke="black" cx="406.95" cy="-90" rx="77.19" ry="18"/>
<text text-anchor="middle" x="406.95" y="-86.3" font-family="Times,serif" font-size="14.00">Horagawa bay</text>
</g>
<!-- pium&#45;&#45;horagawa_bay -->
<g id="edge25" class="edge">
<title>pium&#45;&#45;horagawa_bay</title>
<path fill="none" stroke="black" d="M284.55,-149.28C309.23,-137.53 347.38,-119.36 374.52,-106.44"/>
</g>
<!-- minas -->
<g id="node8" class="node">
<title>minas</title>
<ellipse fill="none" stroke="black" cx="181.95" cy="-18" rx="38.99" ry="18"/>
<text text-anchor="middle" x="181.95" y="-14.3" font-family="Times,serif" font-size="14.00">Minas</text>
</g>
<!-- kolejxjo -->
<g id="node9" class="node">
<title>kolejxjo</title>
<ellipse fill="none" stroke="black" cx="162.95" cy="-450" rx="42.49" ry="18"/>
<text text-anchor="middle" x="162.95" y="-446.3" font-family="Times,serif" font-size="14.00">Kolejĵo</text>
</g>
<!-- roga_river -->
<g id="node25" class="node">
<title>roga_river</title>
<ellipse fill="none" stroke="black" cx="162.95" cy="-378" rx="59.59" ry="18"/>
<text text-anchor="middle" x="162.95" y="-374.3" font-family="Times,serif" font-size="14.00">Roga river</text>
</g>
<!-- kolejxjo&#45;&#45;roga_river -->
<g id="edge17" class="edge">
<title>kolejxjo&#45;&#45;roga_river</title>
<path fill="none" stroke="black" d="M162.95,-431.7C162.95,-420.85 162.95,-406.92 162.95,-396.1"/>
</g>
<!-- parokjo -->
<g id="node10" class="node">
<title>parokjo</title>
<ellipse fill="none" stroke="black" cx="162.95" cy="-306" rx="45.49" ry="18"/>
<text text-anchor="middle" x="162.95" y="-302.3" font-family="Times,serif" font-size="14.00">Parokjo</text>
</g>
<!-- roga_bay -->
<g id="node22" class="node">
<title>roga_bay</title>
<ellipse fill="none" stroke="black" cx="53.95" cy="-234" rx="53.89" ry="18"/>
<text text-anchor="middle" x="53.95" y="-230.3" font-family="Times,serif" font-size="14.00">Roga bay</text>
</g>
<!-- parokjo&#45;&#45;roga_bay -->
<g id="edge19" class="edge">
<title>parokjo&#45;&#45;roga_bay</title>
<path fill="none" stroke="black" d="M140.1,-290.33C121.87,-278.62 96.41,-262.27 77.9,-250.38"/>
</g>
<!-- keble_forest -->
<g id="node24" class="node">
<title>keble_forest</title>
<ellipse fill="none" stroke="black" cx="194.95" cy="-234" rx="69.59" ry="18"/>
<text text-anchor="middle" x="194.95" y="-230.3" font-family="Times,serif" font-size="14.00">Keble Forest</text>
</g>
<!-- parokjo&#45;&#45;keble_forest -->
<g id="edge22" class="edge">
<title>parokjo&#45;&#45;keble_forest</title>
<path fill="none" stroke="black" d="M170.69,-288.05C175.65,-277.21 182.06,-263.18 187.05,-252.28"/>
</g>
<!-- rejkjo -->
<g id="node11" class="node">
<title>rejkjo</title>
<ellipse fill="none" stroke="black" cx="53.95" cy="-162" rx="39.79" ry="18"/>
<text text-anchor="middle" x="53.95" y="-158.3" font-family="Times,serif" font-size="14.00">Rejkjo</text>
</g>
<!-- ilago -->
<g id="node12" class="node">
<title>ilago</title>
<ellipse fill="none" stroke="black" cx="53.95" cy="-90" rx="33.6" ry="18"/>
<text text-anchor="middle" x="53.95" y="-86.3" font-family="Times,serif" font-size="14.00">Ilago</text>
</g>
<!-- rejkjo&#45;&#45;ilago -->
<g id="edge21" class="edge">
<title>rejkjo&#45;&#45;ilago</title>
<path fill="none" stroke="black" d="M53.95,-143.7C53.95,-132.85 53.95,-118.92 53.95,-108.1"/>
</g>
<!-- alexa -->
<g id="node13" class="node">
<title>alexa</title>
<ellipse fill="none" stroke="black" cx="274.95" cy="-18" rx="36.29" ry="18"/>
<text text-anchor="middle" x="274.95" y="-14.3" font-family="Times,serif" font-size="14.00">Alexa</text>
</g>
<!-- sheep_island&#45;&#45;fazu -->
<g id="edge5" class="edge">
<title>sheep_island&#45;&#45;fazu</title>
<path fill="none" stroke="black" d="M377.06,-864.76C360.42,-853.46 338.32,-838.44 321.7,-827.15"/>
</g>
<!-- sheep_island&#45;&#45;horagawa_bay -->
<g id="edge6" class="edge">
<title>sheep_island&#45;&#45;horagawa_bay</title>
<path fill="none" stroke="black" d="M402.13,-863.96C403.88,-837.31 406.95,-784.15 406.95,-739 406.95,-739 406.95,-739 406.95,-233 406.95,-187.89 406.95,-134.71 406.95,-108.05"/>
</g>
<!-- temple_island -->
<g id="node16" class="node">
<title>temple_island</title>
<ellipse fill="none" stroke="black" cx="575.95" cy="-810" rx="75.29" ry="18"/>
<text text-anchor="middle" x="575.95" y="-806.3" font-family="Times,serif" font-size="14.00">Temple island</text>
</g>
<!-- ghosts_islands&#45;&#45;temple_island -->
<g id="edge7" class="edge">
<title>ghosts_islands&#45;&#45;temple_island</title>
<path fill="none" stroke="black" d="M575.95,-863.7C575.95,-852.85 575.95,-838.92 575.95,-828.1"/>
</g>
<!-- unnamed_valley -->
<g id="node18" class="node">
<title>unnamed_valley</title>
<ellipse fill="none" stroke="black" cx="292.95" cy="-522" rx="85.59" ry="18"/>
<text text-anchor="middle" x="292.95" y="-518.3" font-family="Times,serif" font-size="14.00">Unnamed valley</text>
</g>
<!-- keble_planes&#45;&#45;unnamed_valley -->
<g id="edge11" class="edge">
<title>keble_planes&#45;&#45;unnamed_valley</title>
<path fill="none" stroke="black" d="M292.95,-647.87C292.95,-620.58 292.95,-567.52 292.95,-540.19"/>
</g>
<!-- unnamed_valley&#45;&#45;pium -->
<g id="edge12" class="edge">
<title>unnamed_valley&#45;&#45;pium</title>
<path fill="none" stroke="black" d="M292.95,-503.95C292.95,-477.29 292.95,-424.11 292.95,-379 292.95,-379 292.95,-379 292.95,-305 292.95,-258.68 276.08,-206.02 266.46,-179.76"/>
</g>
<!-- alexa_mountain&#45;&#45;minas -->
<g id="edge26" class="edge">
<title>alexa_mountain&#45;&#45;minas</title>
<path fill="none" stroke="black" d="M216.81,-72.05C209.58,-61.05 200.19,-46.76 192.98,-35.79"/>
</g>
<!-- alexa_mountain&#45;&#45;alexa -->
<g id="edge27" class="edge">
<title>alexa_mountain&#45;&#45;alexa</title>
<path fill="none" stroke="black" d="M239.32,-72.05C246.82,-60.89 256.59,-46.34 264,-35.31"/>
</g>
<!-- japi_valley -->
<g id="node20" class="node">
<title>japi_valley</title>
<ellipse fill="none" stroke="black" cx="130.95" cy="-522" rx="58.49" ry="18"/>
<text text-anchor="middle" x="130.95" y="-518.3" font-family="Times,serif" font-size="14.00">Japi valley</text>
</g>
<!-- japi_valley&#45;&#45;gaja -->
<g id="edge15" class="edge">
<title>japi_valley&#45;&#45;gaja</title>
<path fill="none" stroke="black" d="M116.73,-504.41C106.88,-492.93 93.88,-477.75 84.24,-466.51"/>
</g>
<!-- japi_valley&#45;&#45;kolejxjo -->
<g id="edge16" class="edge">
<title>japi_valley&#45;&#45;kolejxjo</title>
<path fill="none" stroke="black" d="M138.69,-504.05C143.72,-493.05 150.25,-478.76 155.27,-467.79"/>
</g>
<!-- god_domain&#45;&#45;japi_valley -->
<g id="edge14" class="edge">
<title>god_domain&#45;&#45;japi_valley</title>
<path fill="none" stroke="black" d="M142.99,-575.7C140.51,-564.85 137.33,-550.92 134.85,-540.1"/>
</g>
<!-- roga_bay&#45;&#45;rejkjo -->
<g id="edge20" class="edge">
<title>roga_bay&#45;&#45;rejkjo</title>
<path fill="none" stroke="black" d="M53.95,-215.7C53.95,-204.85 53.95,-190.92 53.95,-180.1"/>
</g>
<!-- keble_forest&#45;&#45;pium -->
<g id="edge23" class="edge">
<title>keble_forest&#45;&#45;pium</title>
<path fill="none" stroke="black" d="M210.35,-216.41C221.01,-204.93 235.1,-189.75 245.54,-178.51"/>
</g>
<!-- roga_river&#45;&#45;parokjo -->
<g id="edge18" class="edge">
<title>roga_river&#45;&#45;parokjo</title>
<path fill="none" stroke="black" d="M162.95,-359.7C162.95,-348.85 162.95,-334.92 162.95,-324.1"/>
</g>
</g>
</svg>
