<svg class="bob" font-family="arial" font-size="14" height="1168" width="744" xmlns="http://www.w3.org/2000/svg">
<defs>
<marker id="triangle" markerHeight="8" markerWidth="8" orient="auto" refX="4" refY="2" viewBox="0 0 8 4">
<polygon class="fg_fill" points="0,0 0,4 8,2 0,0"/>
</marker>
<marker id="clear_triangle" markerHeight="10" markerWidth="10" orient="auto" refX="1" refY="7" viewBox="0 0 20 14">
<polygon class="bg_fill" points="2,2 2,12 18,7 2,2"/>
</marker>
<marker id="circle" markerHeight="5" markerWidth="5" orient="auto" refX="10" refY="10" viewBox="0 0 20 20">
<circle class="fg_fill" cx="10" cy="10" r="8"/>
</marker>
<marker id="square" markerHeight="5" markerWidth="5" orient="auto" refX="10" refY="10" viewBox="0 0 20 20">
<rect class="fg_fill" height="20" width="20" x="0" y="0"/>
</marker>
<marker id="open_circle" markerHeight="10" markerWidth="10" orient="auto" refX="10" refY="10" viewBox="0 0 20 20">
<circle class="bg_fill" cx="10" cy="10" r="4"/>
</marker>
<marker id="big_open_circle" markerHeight="20" markerWidth="20" orient="auto" refX="20" refY="20" viewBox="0 0 40 40">
<circle class="bg_fill" cx="20" cy="20" r="6"/>
</marker>
</defs>
<style type="text/css">

rect.backdrop {
    fill: white;
}
text{
    fill: black;
}

circle {
    fill: none;
    stroke: black;
    stroke-width: 2;
}

line {
    stroke: black;
    stroke-width: 2;
    stroke-opacity: 1;
    fill-opacity: 1;
    stroke-linecap: round;
    stroke-linejoin: miter;
}

path {
    fill: none;
    stroke: black;
    stroke-width: 2;
    stroke-opacity: 1;
    fill-opacity: 1;
    stroke-linecap: round;
    stroke-linejoin: miter;
}

line.dashed {
    stroke-dasharray: 5;
}

.fg_fill {
    fill: black;
}


.bg_fill {
    fill: white;
    stroke: black;
    stroke-width: 2;
}

tspan.head{
    fill: none;
    stroke: none;
}
    
</style>
<rect class="backdrop" height="1168" width="744" x="0" y="0"/>
<g>
<line x1="80" x2="108" y1="200" y2="200"/>
<line x1="108" x2="108" y1="120" y2="200"/>
<line x1="108" x2="108" y1="200" y2="228"/>
<path d="M 108 228 A 4 4 0 0 0 112 232"/>
<line marker-start="url(#open_circle)" x1="108" x2="108" y1="56" y2="120"/>
<line marker-end="url(#open_circle)" marker-start="url(#open_circle)" x1="108" x2="164" y1="56" y2="56"/>
<line marker-end="url(#open_circle)" x1="108" x2="164" y1="120" y2="120"/>
<line marker-end="url(#open_circle)" x1="108" x2="164" y1="200" y2="200"/>
<line marker-end="url(#open_circle)" x1="164" x2="164" y1="32" y2="56"/>
<line marker-end="url(#open_circle)" marker-start="url(#open_circle)" x1="164" x2="164" y1="56" y2="120"/>
<line marker-end="url(#open_circle)" marker-start="url(#open_circle)" x1="164" x2="236" y1="56" y2="56"/>
<line marker-end="url(#open_circle)" marker-start="url(#open_circle)" x1="164" x2="164" y1="120" y2="200"/>
<line marker-end="url(#open_circle)" marker-start="url(#open_circle)" x1="164" x2="164" y1="200" y2="232"/>
<line marker-start="url(#open_circle)" x1="164" x2="160" y1="232" y2="232"/>
<line marker-start="url(#open_circle)" x1="164" x2="164" y1="232" y2="296"/>
<line marker-end="url(#open_circle)" x1="164" x2="164" y1="296" y2="344"/>
<line marker-start="url(#open_circle)" x1="164" x2="164" y1="344" y2="392"/>
<line marker-start="url(#open_circle)" x1="164" x2="168" y1="344" y2="344"/>
<line marker-end="url(#open_circle)" x1="164" x2="164" y1="392" y2="472"/>
<line marker-end="url(#open_circle)" x1="164" x2="460" y1="392" y2="392"/>
<line marker-start="url(#open_circle)" x1="164" x2="164" y1="472" y2="536"/>
<line marker-end="url(#open_circle)" marker-start="url(#open_circle)" x1="164" x2="460" y1="472" y2="472"/>
<line marker-end="url(#open_circle)" x1="164" x2="164" y1="536" y2="584"/>
<line marker-end="url(#open_circle)" x1="164" x2="460" y1="536" y2="536"/>
<line marker-start="url(#open_circle)" x1="164" x2="164" y1="584" y2="664"/>
<line marker-start="url(#open_circle)" x1="164" x2="460" y1="584" y2="584"/>
<line marker-end="url(#open_circle)" x1="164" x2="164" y1="664" y2="744"/>
<line marker-end="url(#open_circle)" x1="164" x2="460" y1="664" y2="664"/>
<line marker-end="url(#open_circle)" marker-start="url(#open_circle)" x1="164" x2="196" y1="744" y2="744"/>
<line marker-end="url(#open_circle)" x1="196" x2="196" y1="720" y2="744"/>
<line marker-start="url(#open_circle)" x1="196" x2="196" y1="744" y2="840"/>
<line marker-end="url(#open_circle)" marker-start="url(#open_circle)" x1="196" x2="460" y1="744" y2="744"/>
<line marker-end="url(#open_circle)" x1="196" x2="460" y1="840" y2="840"/>
<line marker-end="url(#open_circle)" x1="236" x2="236" y1="32" y2="56"/>
<line marker-start="url(#open_circle)" x1="236" x2="236" y1="56" y2="296"/>
<line marker-end="url(#open_circle)" marker-start="url(#open_circle)" x1="236" x2="308" y1="56" y2="56"/>
<line marker-end="url(#open_circle)" x1="308" x2="308" y1="32" y2="56"/>
<line marker-start="url(#open_circle)" x1="308" x2="308" y1="56" y2="296"/>
<line marker-end="url(#open_circle)" marker-start="url(#open_circle)" x1="308" x2="380" y1="56" y2="56"/>
<line marker-end="url(#open_circle)" x1="380" x2="380" y1="32" y2="56"/>
<line marker-start="url(#open_circle)" x1="380" x2="380" y1="56" y2="296"/>
<line marker-end="url(#open_circle)" marker-start="url(#open_circle)" x1="380" x2="460" y1="56" y2="56"/>
<line marker-end="url(#open_circle)" x1="380" x2="460" y1="296" y2="296"/>
<line marker-end="url(#open_circle)" x1="460" x2="460" y1="32" y2="56"/>
<line marker-end="url(#open_circle)" marker-start="url(#open_circle)" x1="460" x2="460" y1="56" y2="296"/>
<line marker-end="url(#open_circle)" marker-start="url(#open_circle)" x1="460" x2="460" y1="296" y2="344"/>
<line marker-start="url(#open_circle)" x1="460" x2="456" y1="344" y2="344"/>
<line marker-end="url(#open_circle)" marker-start="url(#open_circle)" x1="460" x2="460" y1="344" y2="392"/>
<line marker-end="url(#open_circle)" marker-start="url(#open_circle)" x1="460" x2="460" y1="392" y2="472"/>
<line marker-end="url(#open_circle)" marker-start="url(#open_circle)" x1="460" x2="460" y1="472" y2="536"/>
<line marker-start="url(#open_circle)" x1="460" x2="460" y1="536" y2="584"/>
<line marker-end="url(#open_circle)" x1="460" x2="460" y1="584" y2="664"/>
<line marker-end="url(#open_circle)" x1="460" x2="540" y1="584" y2="584"/>
<line marker-end="url(#open_circle)" marker-start="url(#open_circle)" x1="460" x2="460" y1="664" y2="744"/>
<line marker-end="url(#open_circle)" marker-start="url(#open_circle)" x1="460" x2="460" y1="744" y2="840"/>
<line marker-end="url(#open_circle)" marker-start="url(#open_circle)" x1="460" x2="460" y1="840" y2="920"/>
<line marker-end="url(#open_circle)" marker-start="url(#open_circle)" x1="460" x2="460" y1="920" y2="1000"/>
<line marker-start="url(#open_circle)" x1="460" x2="540" y1="920" y2="920"/>
<line marker-end="url(#open_circle)" marker-start="url(#open_circle)" x1="460" x2="460" y1="1000" y2="1112"/>
<line marker-start="url(#open_circle)" x1="460" x2="540" y1="1000" y2="1000"/>
<line marker-end="url(#triangle)" marker-start="url(#open_circle)" x1="460" x2="460" y1="1112" y2="1148"/>
<line marker-end="url(#open_circle)" marker-start="url(#open_circle)" x1="460" x2="540" y1="1112" y2="1112"/>
<line marker-start="url(#open_circle)" x1="540" x2="540" y1="584" y2="920"/>
<line marker-end="url(#open_circle)" x1="540" x2="620" y1="920" y2="920"/>
<line marker-end="url(#open_circle)" x1="540" x2="540" y1="1000" y2="1112"/>
<line marker-end="url(#triangle)" marker-start="url(#open_circle)" x1="540" x2="540" y1="1112" y2="1148"/>
<line marker-end="url(#open_circle)" marker-start="url(#open_circle)" x1="540" x2="620" y1="1112" y2="1112"/>
<line marker-start="url(#open_circle)" x1="620" x2="620" y1="920" y2="1000"/>
<line marker-end="url(#open_circle)" x1="620" x2="620" y1="1000" y2="1112"/>
<line marker-end="url(#open_circle)" x1="620" x2="708" y1="1000" y2="1000"/>
<line marker-end="url(#triangle)" marker-start="url(#open_circle)" x1="620" x2="620" y1="1112" y2="1148"/>
<line marker-end="url(#open_circle)" marker-start="url(#open_circle)" x1="620" x2="708" y1="1112" y2="1112"/>
<line marker-end="url(#open_circle)" marker-start="url(#open_circle)" x1="708" x2="708" y1="1000" y2="1112"/>
<line marker-end="url(#triangle)" marker-start="url(#open_circle)" x1="708" x2="708" y1="1112" y2="1148"/>
</g>
<g>
<line x1="80" x2="164" y1="296" y2="296"/>
<line x1="164" x2="236" y1="296" y2="296"/>
<line x1="236" x2="236" y1="296" y2="340"/>
<line x1="236" x2="308" y1="296" y2="296"/>
<line x1="308" x2="308" y1="296" y2="340"/>
<line x1="308" x2="380" y1="296" y2="296"/>
<line x1="380" x2="380" y1="296" y2="340"/>
<path d="M 232 344 A 4 4 0 0 0 236 340"/>
<path d="M 308 340 A 4 4 0 0 0 312 344"/>
<path d="M 376 344 A 4 4 0 0 0 380 340"/>
<path d="M 380 340 A 4 4 0 0 0 384 344"/>
</g>
<g>
<line x1="80" x2="164" y1="392" y2="392"/>
</g>
<g>
<line x1="80" x2="164" y1="664" y2="664"/>
</g>
<g>
<line x1="80" x2="196" y1="840" y2="840"/>
<line x1="196" x2="196" y1="840" y2="920"/>
<line x1="196" x2="196" y1="920" y2="1000"/>
<line marker-end="url(#open_circle)" x1="196" x2="460" y1="920" y2="920"/>
<line marker-end="url(#open_circle)" x1="196" x2="196" y1="1000" y2="1048"/>
<line marker-end="url(#open_circle)" x1="196" x2="460" y1="1000" y2="1000"/>
<line marker-end="url(#open_circle)" marker-start="url(#open_circle)" x1="196" x2="236" y1="1048" y2="1048"/>
<line marker-end="url(#open_circle)" marker-start="url(#open_circle)" x1="236" x2="236" y1="1048" y2="1112"/>
<line marker-end="url(#triangle)" marker-start="url(#open_circle)" x1="236" x2="236" y1="1112" y2="1148"/>
<line marker-end="url(#open_circle)" marker-start="url(#open_circle)" x1="236" x2="460" y1="1112" y2="1112"/>
</g>
<g>
<line x1="88" x2="108" y1="120" y2="120"/>
</g>
<g>
<line x1="88" x2="164" y1="536" y2="536"/>
</g>
<g>
<line x1="88" x2="196" y1="1000" y2="1000"/>
</g>
<g>
<line x1="96" x2="196" y1="920" y2="920"/>
</g>
<g>
<line marker-end="url(#triangle)" x1="108" x2="108" y1="16" y2="28"/>
</g>
<g>
<line marker-end="url(#triangle)" x1="112" x2="156" y1="232" y2="232"/>
</g>
<g>
<line marker-end="url(#triangle)" x1="176" x2="172" y1="344" y2="344"/>
<line x1="176" x2="232" y1="344" y2="344"/>
</g>
<g>
<line x1="312" x2="376" y1="344" y2="344"/>
</g>
<g>
<line marker-end="url(#triangle)" x1="380" x2="380" y1="16" y2="28"/>
</g>
<g>
<line marker-end="url(#triangle)" x1="384" x2="452" y1="344" y2="344"/>
</g>
<g>
<line x1="540" x2="540" y1="920" y2="1000"/>
<line x1="540" x2="620" y1="1000" y2="1000"/>
</g>
<g>
<text x="1" y="44">
Written
</text>
</g>
<g>
<text x="1" y="60">
history
</text>
</g>
<g>
<text x="1" y="76">
begins
</text>
</g>
<g>
<text x="1" y="124">
Underworld
</text>
</g>
<g>
<text x="1" y="140">
discovered
</text>
</g>
<g>
<text x="1" y="188">
Këble
</text>
</g>
<g>
<text x="1" y="204">
Expansion
</text>
</g>
<g>
<text x="1" y="220">
begins
</text>
</g>
<g>
<text x="1" y="284">
Orisha
</text>
</g>
<g>
<text x="1" y="300">
Expansion
</text>
</g>
<g>
<text x="1" y="316">
Begins
</text>
</g>
<g>
<text x="1" y="380">
Horagawa
</text>
</g>
<g>
<text x="1" y="396">
colony
</text>
</g>
<g>
<text x="1" y="412">
founded
</text>
</g>
<g>
<text x="1" y="460">
Expansion
</text>
</g>
<g>
<text x="1" y="476">
Wars
</text>
</g>
<g>
<text x="1" y="524">
Minami
</text>
</g>
<g>
<text x="1" y="540">
discovered
</text>
</g>
<g>
<text x="1" y="588">
Feröo
</text>
</g>
<g>
<text x="1" y="604">
founded
</text>
</g>
<g>
<text x="1" y="652">
Mining
</text>
</g>
<g>
<text x="1" y="668">
starts
</text>
</g>
<g>
<text x="1" y="684">
Minami
</text>
</g>
<g>
<text x="1" y="732">
Expansion
</text>
</g>
<g>
<text x="1" y="748">
Wars
</text>
</g>
<g>
<text x="1" y="764">
Banderanto
</text>
</g>
<g>
<text x="1" y="780">
is
</text>
</g>
<g>
<text x="1" y="828">
Minami
</text>
</g>
<g>
<text x="1" y="844">
Expansion
</text>
</g>
<g>
<text x="1" y="860">
begins
</text>
</g>
<g>
<text x="1" y="908">
Minami
</text>
</g>
<g>
<text x="1" y="924">
becomes
</text>
</g>
<g>
<text x="1" y="940">
independent
</text>
</g>
<g>
<text x="1" y="988">
Horagawa
</text>
</g>
<g>
<text x="1" y="1004">
Rebellions
</text>
</g>
<g>
<text x="1" y="1052">
Separation
</text>
</g>
<g>
<text x="1" y="1068">
Wars
</text>
</g>
<g>
<text x="1" y="1116">
Present
</text>
</g>
<g>
<text x="25" y="780">
founded
</text>
</g>
<g>
<text x="41" y="476">
begin
</text>
</g>
<g>
<text x="41" y="748">
end,
</text>
</g>
<g>
<text x="49" y="588">
is
</text>
</g>
<g>
<text x="57" y="396">
is
</text>
</g>
<g>
<text x="57" y="524">
is
</text>
</g>
<g>
<text x="57" y="668">
on
</text>
</g>
<g>
<text x="97" y="12">
Roga
</text>
</g>
<g>
<text x="97" y="1164">
Roga
</text>
</g>
<g>
<text x="145" y="12">
Këble
</text>
</g>
<g>
<text x="161" y="28">
V
</text>
</g>
<g>
<text x="177" y="716">
Banderanto
</text>
</g>
<g>
<text x="225" y="12">
Gaja
</text>
</g>
<g>
<text x="225" y="1164">
Gaja
</text>
</g>
<g>
<text x="233" y="28">
V
</text>
</g>
<g>
<text x="289" y="12">
Kiten
</text>
</g>
<g>
<text x="305" y="28">
V
</text>
</g>
<g>
<text x="361" y="12">
Kyoukai
</text>
</g>
<g>
<text x="441" y="12">
Orisa
</text>
</g>
<g>
<text x="441" y="1164">
Orisa
</text>
</g>
<g>
<text x="457" y="28">
V
</text>
</g>
<g>
<text x="521" y="1164">
Feröo
</text>
</g>
<g>
<text x="601" y="1164">
Minami
</text>
</g>
<g>
<text x="681" y="1164">
Horagawa
</text>
</g>
<g>
<line marker-end="url(#open_circle)" x1="56" x2="108" y1="1112" y2="1112"/>
<line marker-end="url(#open_circle)" marker-start="url(#open_circle)" x1="108" x2="108" y1="1048" y2="1112"/>
<line marker-end="url(#open_circle)" marker-start="url(#open_circle)" x1="108" x2="196" y1="1048" y2="1048"/>
<line marker-end="url(#triangle)" marker-start="url(#open_circle)" x1="108" x2="108" y1="1112" y2="1148"/>
<line marker-end="url(#open_circle)" marker-start="url(#open_circle)" x1="108" x2="236" y1="1112" y2="1112"/>
</g>
<g>
<line marker-end="url(#open_circle)" x1="64" x2="108" y1="56" y2="56"/>
<line marker-end="url(#open_circle)" x1="108" x2="108" y1="32" y2="56"/>
</g>
<g>
<line marker-end="url(#open_circle)" x1="72" x2="164" y1="584" y2="584"/>
</g>
<g>
<line marker-end="url(#open_circle)" x1="88" x2="164" y1="472" y2="472"/>
</g>
<g>
<line marker-end="url(#open_circle)" x1="88" x2="164" y1="744" y2="744"/>
</g>
<g>
<line marker-end="url(#open_circle)" x1="88" x2="108" y1="1048" y2="1048"/>
</g>
</svg>
